<?xml version="1.0" encoding="UTF-8" standalone="no"?>
<!DOCTYPE svg PUBLIC "-//W3C//DTD SVG 1.1//EN"
 "http://www.w3.org/Graphics/SVG/1.1/DTD/svg11.dtd">
<!-- Generated by graphviz version 3.0.0 (20220226.1711)
 -->
<!-- Title: Tree Pages: 1 -->
<svg width="1168pt" height="433pt"
 viewBox="0.00 0.00 1168.00 433.00" xmlns="http://www.w3.org/2000/svg" xmlns:xlink="http://www.w3.org/1999/xlink">
<g id="graph0" class="graph" transform="scale(1 1) rotate(0) translate(4 429)">
<title>Tree</title>
<polygon fill="white" stroke="transparent" points="-4,4 -4,-429 1164,-429 1164,4 -4,4"/>
<!-- 0 -->
<g id="node1" class="node">
<title>0</title>
<path fill="#eeaf81" stroke="black" d="M634.5,-425C634.5,-425 437.5,-425 437.5,-425 431.5,-425 425.5,-419 425.5,-413 425.5,-413 425.5,-354 425.5,-354 425.5,-348 431.5,-342 437.5,-342 437.5,-342 634.5,-342 634.5,-342 640.5,-342 646.5,-348 646.5,-354 646.5,-354 646.5,-413 646.5,-413 646.5,-419 640.5,-425 634.5,-425"/>
<text text-anchor="middle" x="536" y="-409.8" font-family="Helvetica,sans-Serif" font-size="14.00">Contract_Month&#45;to&#45;month &lt;= 0.5</text>
<text text-anchor="middle" x="536" y="-394.8" font-family="Helvetica,sans-Serif" font-size="14.00">entropy = 0.835</text>
<text text-anchor="middle" x="536" y="-379.8" font-family="Helvetica,sans-Serif" font-size="14.00">samples = 5625</text>
<text text-anchor="middle" x="536" y="-364.8" font-family="Helvetica,sans-Serif" font-size="14.00">value = [4130, 1495]</text>
<text text-anchor="middle" x="536" y="-349.8" font-family="Helvetica,sans-Serif" font-size="14.00">class = not_churn</text>
</g>
<!-- 1 -->
<g id="node2" class="node">
<title>1</title>
<path fill="#e78a47" stroke="black" d="M484,-306C484,-306 320,-306 320,-306 314,-306 308,-300 308,-294 308,-294 308,-235 308,-235 308,-229 314,-223 320,-223 320,-223 484,-223 484,-223 490,-223 496,-229 496,-235 496,-235 496,-294 496,-294 496,-300 490,-306 484,-306"/>
<text text-anchor="middle" x="402" y="-290.8" font-family="Helvetica,sans-Serif" font-size="14.00">MonthlyCharges &lt;= 93.675</text>
<text text-anchor="middle" x="402" y="-275.8" font-family="Helvetica,sans-Serif" font-size="14.00">entropy = 0.35</text>
<text text-anchor="middle" x="402" y="-260.8" font-family="Helvetica,sans-Serif" font-size="14.00">samples = 2512</text>
<text text-anchor="middle" x="402" y="-245.8" font-family="Helvetica,sans-Serif" font-size="14.00">value = [2347, 165]</text>
<text text-anchor="middle" x="402" y="-230.8" font-family="Helvetica,sans-Serif" font-size="14.00">class = not_churn</text>
</g>
<!-- 0&#45;&gt;1 -->
<g id="edge1" class="edge">
<title>0&#45;&gt;1</title>
<path fill="none" stroke="black" d="M489.51,-341.91C478.7,-332.47 467.1,-322.34 456,-312.65"/>
<polygon fill="black" stroke="black" points="458.24,-309.96 448.41,-306.02 453.64,-315.23 458.24,-309.96"/>
<text text-anchor="middle" x="450.1" y="-327.26" font-family="Helvetica,sans-Serif" font-size="14.00">True</text>
</g>
<!-- 8 -->
<g id="node9" class="node">
<title>8</title>
<path fill="#f8dfcd" stroke="black" d="M827.5,-306C827.5,-306 618.5,-306 618.5,-306 612.5,-306 606.5,-300 606.5,-294 606.5,-294 606.5,-235 606.5,-235 606.5,-229 612.5,-223 618.5,-223 618.5,-223 827.5,-223 827.5,-223 833.5,-223 839.5,-229 839.5,-235 839.5,-235 839.5,-294 839.5,-294 839.5,-300 833.5,-306 827.5,-306"/>
<text text-anchor="middle" x="723" y="-290.8" font-family="Helvetica,sans-Serif" font-size="14.00">InternetService_Fiber optic &lt;= 0.5</text>
<text text-anchor="middle" x="723" y="-275.8" font-family="Helvetica,sans-Serif" font-size="14.00">entropy = 0.985</text>
<text text-anchor="middle" x="723" y="-260.8" font-family="Helvetica,sans-Serif" font-size="14.00">samples = 3113</text>
<text text-anchor="middle" x="723" y="-245.8" font-family="Helvetica,sans-Serif" font-size="14.00">value = [1783, 1330]</text>
<text text-anchor="middle" x="723" y="-230.8" font-family="Helvetica,sans-Serif" font-size="14.00">class = not_churn</text>
</g>
<!-- 0&#45;&gt;8 -->
<g id="edge8" class="edge">
<title>0&#45;&gt;8</title>
<path fill="none" stroke="black" d="M600.88,-341.91C616.54,-332.11 633.4,-321.56 649.43,-311.53"/>
<polygon fill="black" stroke="black" points="651.61,-314.29 658.24,-306.02 647.9,-308.36 651.61,-314.29"/>
<text text-anchor="middle" x="652.63" y="-326.68" font-family="Helvetica,sans-Serif" font-size="14.00">False</text>
</g>
<!-- 2 -->
<g id="node3" class="node">
<title>2</title>
<path fill="#e68641" stroke="black" d="M289,-187C289,-187 133,-187 133,-187 127,-187 121,-181 121,-175 121,-175 121,-116 121,-116 121,-110 127,-104 133,-104 133,-104 289,-104 289,-104 295,-104 301,-110 301,-116 301,-116 301,-175 301,-175 301,-181 295,-187 289,-187"/>
<text text-anchor="middle" x="211" y="-171.8" font-family="Helvetica,sans-Serif" font-size="14.00">Contract_Two year &lt;= 0.5</text>
<text text-anchor="middle" x="211" y="-156.8" font-family="Helvetica,sans-Serif" font-size="14.00">entropy = 0.24</text>
<text text-anchor="middle" x="211" y="-141.8" font-family="Helvetica,sans-Serif" font-size="14.00">samples = 1898</text>
<text text-anchor="middle" x="211" y="-126.8" font-family="Helvetica,sans-Serif" font-size="14.00">value = [1823, 75]</text>
<text text-anchor="middle" x="211" y="-111.8" font-family="Helvetica,sans-Serif" font-size="14.00">class = not_churn</text>
</g>
<!-- 1&#45;&gt;2 -->
<g id="edge2" class="edge">
<title>1&#45;&gt;2</title>
<path fill="none" stroke="black" d="M335.73,-222.91C319.59,-213.02 302.2,-202.37 285.69,-192.25"/>
<polygon fill="black" stroke="black" points="287.5,-189.26 277.15,-187.02 283.85,-195.23 287.5,-189.26"/>
</g>
<!-- 5 -->
<g id="node6" class="node">
<title>5</title>
<path fill="#e9975b" stroke="black" d="M454,-187C454,-187 350,-187 350,-187 344,-187 338,-181 338,-175 338,-175 338,-116 338,-116 338,-110 344,-104 350,-104 350,-104 454,-104 454,-104 460,-104 466,-110 466,-116 466,-116 466,-175 466,-175 466,-181 460,-187 454,-187"/>
<text text-anchor="middle" x="402" y="-171.8" font-family="Helvetica,sans-Serif" font-size="14.00">tenure &lt;= 70.5</text>
<text text-anchor="middle" x="402" y="-156.8" font-family="Helvetica,sans-Serif" font-size="14.00">entropy = 0.601</text>
<text text-anchor="middle" x="402" y="-141.8" font-family="Helvetica,sans-Serif" font-size="14.00">samples = 614</text>
<text text-anchor="middle" x="402" y="-126.8" font-family="Helvetica,sans-Serif" font-size="14.00">value = [524, 90]</text>
<text text-anchor="middle" x="402" y="-111.8" font-family="Helvetica,sans-Serif" font-size="14.00">class = not_churn</text>
</g>
<!-- 1&#45;&gt;5 -->
<g id="edge5" class="edge">
<title>1&#45;&gt;5</title>
<path fill="none" stroke="black" d="M402,-222.91C402,-214.65 402,-205.86 402,-197.3"/>
<polygon fill="black" stroke="black" points="405.5,-197.02 402,-187.02 398.5,-197.02 405.5,-197.02"/>
</g>
<!-- 3 -->
<g id="node4" class="node">
<title>3</title>
<path fill="#e78a47" stroke="black" d="M116,-68C116,-68 12,-68 12,-68 6,-68 0,-62 0,-56 0,-56 0,-12 0,-12 0,-6 6,0 12,0 12,0 116,0 116,0 122,0 128,-6 128,-12 128,-12 128,-56 128,-56 128,-62 122,-68 116,-68"/>
<text text-anchor="middle" x="64" y="-52.8" font-family="Helvetica,sans-Serif" font-size="14.00">entropy = 0.353</text>
<text text-anchor="middle" x="64" y="-37.8" font-family="Helvetica,sans-Serif" font-size="14.00">samples = 870</text>
<text text-anchor="middle" x="64" y="-22.8" font-family="Helvetica,sans-Serif" font-size="14.00">value = [812, 58]</text>
<text text-anchor="middle" x="64" y="-7.8" font-family="Helvetica,sans-Serif" font-size="14.00">class = not_churn</text>
</g>
<!-- 2&#45;&gt;3 -->
<g id="edge3" class="edge">
<title>2&#45;&gt;3</title>
<path fill="none" stroke="black" d="M156.26,-103.73C143.41,-94.15 129.73,-83.96 116.95,-74.44"/>
<polygon fill="black" stroke="black" points="118.81,-71.47 108.7,-68.3 114.63,-77.08 118.81,-71.47"/>
</g>
<!-- 4 -->
<g id="node5" class="node">
<title>4</title>
<path fill="#e5833c" stroke="black" d="M264,-68C264,-68 158,-68 158,-68 152,-68 146,-62 146,-56 146,-56 146,-12 146,-12 146,-6 152,0 158,0 158,0 264,0 264,0 270,0 276,-6 276,-12 276,-12 276,-56 276,-56 276,-62 270,-68 264,-68"/>
<text text-anchor="middle" x="211" y="-52.8" font-family="Helvetica,sans-Serif" font-size="14.00">entropy = 0.122</text>
<text text-anchor="middle" x="211" y="-37.8" font-family="Helvetica,sans-Serif" font-size="14.00">samples = 1028</text>
<text text-anchor="middle" x="211" y="-22.8" font-family="Helvetica,sans-Serif" font-size="14.00">value = [1011, 17]</text>
<text text-anchor="middle" x="211" y="-7.8" font-family="Helvetica,sans-Serif" font-size="14.00">class = not_churn</text>
</g>
<!-- 2&#45;&gt;4 -->
<g id="edge4" class="edge">
<title>2&#45;&gt;4</title>
<path fill="none" stroke="black" d="M211,-103.73C211,-95.52 211,-86.86 211,-78.56"/>
<polygon fill="black" stroke="black" points="214.5,-78.3 211,-68.3 207.5,-78.3 214.5,-78.3"/>
</g>
<!-- 6 -->
<g id="node7" class="node">
<title>6</title>
<path fill="#eb9d66" stroke="black" d="M410,-68C410,-68 306,-68 306,-68 300,-68 294,-62 294,-56 294,-56 294,-12 294,-12 294,-6 300,0 306,0 306,0 410,0 410,0 416,0 422,-6 422,-12 422,-12 422,-56 422,-56 422,-62 416,-68 410,-68"/>
<text text-anchor="middle" x="358" y="-52.8" font-family="Helvetica,sans-Serif" font-size="14.00">entropy = 0.69</text>
<text text-anchor="middle" x="358" y="-37.8" font-family="Helvetica,sans-Serif" font-size="14.00">samples = 450</text>
<text text-anchor="middle" x="358" y="-22.8" font-family="Helvetica,sans-Serif" font-size="14.00">value = [367, 83]</text>
<text text-anchor="middle" x="358" y="-7.8" font-family="Helvetica,sans-Serif" font-size="14.00">class = not_churn</text>
</g>
<!-- 5&#45;&gt;6 -->
<g id="edge6" class="edge">
<title>5&#45;&gt;6</title>
<path fill="none" stroke="black" d="M385.62,-103.73C382.21,-95.24 378.61,-86.28 375.17,-77.73"/>
<polygon fill="black" stroke="black" points="378.36,-76.27 371.38,-68.3 371.86,-78.88 378.36,-76.27"/>
</g>
<!-- 7 -->
<g id="node8" class="node">
<title>7</title>
<path fill="#e68742" stroke="black" d="M556,-68C556,-68 452,-68 452,-68 446,-68 440,-62 440,-56 440,-56 440,-12 440,-12 440,-6 446,0 452,0 452,0 556,0 556,0 562,0 568,-6 568,-12 568,-12 568,-56 568,-56 568,-62 562,-68 556,-68"/>
<text text-anchor="middle" x="504" y="-52.8" font-family="Helvetica,sans-Serif" font-size="14.00">entropy = 0.254</text>
<text text-anchor="middle" x="504" y="-37.8" font-family="Helvetica,sans-Serif" font-size="14.00">samples = 164</text>
<text text-anchor="middle" x="504" y="-22.8" font-family="Helvetica,sans-Serif" font-size="14.00">value = [157, 7]</text>
<text text-anchor="middle" x="504" y="-7.8" font-family="Helvetica,sans-Serif" font-size="14.00">class = not_churn</text>
</g>
<!-- 5&#45;&gt;7 -->
<g id="edge7" class="edge">
<title>5&#45;&gt;7</title>
<path fill="none" stroke="black" d="M439.98,-103.73C448.48,-94.61 457.49,-84.93 465.99,-75.81"/>
<polygon fill="black" stroke="black" points="468.73,-78 472.98,-68.3 463.6,-73.23 468.73,-78"/>
</g>
<!-- 9 -->
<g id="node10" class="node">
<title>9</title>
<path fill="#efb489" stroke="black" d="M780,-187C780,-187 666,-187 666,-187 660,-187 654,-181 654,-175 654,-175 654,-116 654,-116 654,-110 660,-104 666,-104 666,-104 780,-104 780,-104 786,-104 792,-110 792,-116 792,-116 792,-175 792,-175 792,-181 786,-187 780,-187"/>
<text text-anchor="middle" x="723" y="-171.8" font-family="Helvetica,sans-Serif" font-size="14.00">tenure &lt;= 3.5</text>
<text text-anchor="middle" x="723" y="-156.8" font-family="Helvetica,sans-Serif" font-size="14.00">entropy = 0.864</text>
<text text-anchor="middle" x="723" y="-141.8" font-family="Helvetica,sans-Serif" font-size="14.00">samples = 1402</text>
<text text-anchor="middle" x="723" y="-126.8" font-family="Helvetica,sans-Serif" font-size="14.00">value = [1000, 402]</text>
<text text-anchor="middle" x="723" y="-111.8" font-family="Helvetica,sans-Serif" font-size="14.00">class = not_churn</text>
</g>
<!-- 8&#45;&gt;9 -->
<g id="edge9" class="edge">
<title>8&#45;&gt;9</title>
<path fill="none" stroke="black" d="M723,-222.91C723,-214.65 723,-205.86 723,-197.3"/>
<polygon fill="black" stroke="black" points="726.5,-197.02 723,-187.02 719.5,-197.02 726.5,-197.02"/>
</g>
<!-- 12 -->
<g id="node13" class="node">
<title>12</title>
<path fill="#e0f0fb" stroke="black" d="M1000,-187C1000,-187 894,-187 894,-187 888,-187 882,-181 882,-175 882,-175 882,-116 882,-116 882,-110 888,-104 894,-104 894,-104 1000,-104 1000,-104 1006,-104 1012,-110 1012,-116 1012,-116 1012,-175 1012,-175 1012,-181 1006,-187 1000,-187"/>
<text text-anchor="middle" x="947" y="-171.8" font-family="Helvetica,sans-Serif" font-size="14.00">tenure &lt;= 15.5</text>
<text text-anchor="middle" x="947" y="-156.8" font-family="Helvetica,sans-Serif" font-size="14.00">entropy = 0.995</text>
<text text-anchor="middle" x="947" y="-141.8" font-family="Helvetica,sans-Serif" font-size="14.00">samples = 1711</text>
<text text-anchor="middle" x="947" y="-126.8" font-family="Helvetica,sans-Serif" font-size="14.00">value = [783, 928]</text>
<text text-anchor="middle" x="947" y="-111.8" font-family="Helvetica,sans-Serif" font-size="14.00">class = churn</text>
</g>
<!-- 8&#45;&gt;12 -->
<g id="edge12" class="edge">
<title>8&#45;&gt;12</title>
<path fill="none" stroke="black" d="M800.72,-222.91C824.03,-210.73 849.54,-197.41 872.63,-185.34"/>
<polygon fill="black" stroke="black" points="874.45,-188.35 881.69,-180.61 871.2,-182.14 874.45,-188.35"/>
</g>
<!-- 10 -->
<g id="node11" class="node">
<title>10</title>
<path fill="#fbebe0" stroke="black" d="M704,-68C704,-68 598,-68 598,-68 592,-68 586,-62 586,-56 586,-56 586,-12 586,-12 586,-6 592,0 598,0 598,0 704,0 704,0 710,0 716,-6 716,-12 716,-12 716,-56 716,-56 716,-62 710,-68 704,-68"/>
<text text-anchor="middle" x="651" y="-52.8" font-family="Helvetica,sans-Serif" font-size="14.00">entropy = 0.995</text>
<text text-anchor="middle" x="651" y="-37.8" font-family="Helvetica,sans-Serif" font-size="14.00">samples = 474</text>
<text text-anchor="middle" x="651" y="-22.8" font-family="Helvetica,sans-Serif" font-size="14.00">value = [257, 217]</text>
<text text-anchor="middle" x="651" y="-7.8" font-family="Helvetica,sans-Serif" font-size="14.00">class = not_churn</text>
</g>
<!-- 9&#45;&gt;10 -->
<g id="edge10" class="edge">
<title>9&#45;&gt;10</title>
<path fill="none" stroke="black" d="M696.19,-103.73C690.43,-94.97 684.34,-85.7 678.55,-76.91"/>
<polygon fill="black" stroke="black" points="681.31,-74.73 672.9,-68.3 675.47,-78.58 681.31,-74.73"/>
</g>
<!-- 11 -->
<g id="node12" class="node">
<title>11</title>
<path fill="#eba06a" stroke="black" d="M852,-68C852,-68 746,-68 746,-68 740,-68 734,-62 734,-56 734,-56 734,-12 734,-12 734,-6 740,0 746,0 746,0 852,0 852,0 858,0 864,-6 864,-12 864,-12 864,-56 864,-56 864,-62 858,-68 852,-68"/>
<text text-anchor="middle" x="799" y="-52.8" font-family="Helvetica,sans-Serif" font-size="14.00">entropy = 0.721</text>
<text text-anchor="middle" x="799" y="-37.8" font-family="Helvetica,sans-Serif" font-size="14.00">samples = 928</text>
<text text-anchor="middle" x="799" y="-22.8" font-family="Helvetica,sans-Serif" font-size="14.00">value = [743, 185]</text>
<text text-anchor="middle" x="799" y="-7.8" font-family="Helvetica,sans-Serif" font-size="14.00">class = not_churn</text>
</g>
<!-- 9&#45;&gt;11 -->
<g id="edge11" class="edge">
<title>9&#45;&gt;11</title>
<path fill="none" stroke="black" d="M751.3,-103.73C757.44,-94.88 763.94,-85.51 770.11,-76.63"/>
<polygon fill="black" stroke="black" points="773.06,-78.51 775.89,-68.3 767.31,-74.52 773.06,-78.51"/>
</g>
<!-- 13 -->
<g id="node14" class="node">
<title>13</title>
<path fill="#92c9f1" stroke="black" d="M1000,-68C1000,-68 894,-68 894,-68 888,-68 882,-62 882,-56 882,-56 882,-12 882,-12 882,-6 888,0 894,0 894,0 1000,0 1000,0 1006,0 1012,-6 1012,-12 1012,-12 1012,-56 1012,-56 1012,-62 1006,-68 1000,-68"/>
<text text-anchor="middle" x="947" y="-52.8" font-family="Helvetica,sans-Serif" font-size="14.00">entropy = 0.895</text>
<text text-anchor="middle" x="947" y="-37.8" font-family="Helvetica,sans-Serif" font-size="14.00">samples = 829</text>
<text text-anchor="middle" x="947" y="-22.8" font-family="Helvetica,sans-Serif" font-size="14.00">value = [258, 571]</text>
<text text-anchor="middle" x="947" y="-7.8" font-family="Helvetica,sans-Serif" font-size="14.00">class = churn</text>
</g>
<!-- 12&#45;&gt;13 -->
<g id="edge13" class="edge">
<title>12&#45;&gt;13</title>
<path fill="none" stroke="black" d="M947,-103.73C947,-95.52 947,-86.86 947,-78.56"/>
<polygon fill="black" stroke="black" points="950.5,-78.3 947,-68.3 943.5,-78.3 950.5,-78.3"/>
</g>
<!-- 14 -->
<g id="node15" class="node">
<title>14</title>
<path fill="#f7d7c0" stroke="black" d="M1148,-68C1148,-68 1042,-68 1042,-68 1036,-68 1030,-62 1030,-56 1030,-56 1030,-12 1030,-12 1030,-6 1036,0 1042,0 1042,0 1148,0 1148,0 1154,0 1160,-6 1160,-12 1160,-12 1160,-56 1160,-56 1160,-62 1154,-68 1148,-68"/>
<text text-anchor="middle" x="1095" y="-52.8" font-family="Helvetica,sans-Serif" font-size="14.00">entropy = 0.974</text>
<text text-anchor="middle" x="1095" y="-37.8" font-family="Helvetica,sans-Serif" font-size="14.00">samples = 882</text>
<text text-anchor="middle" x="1095" y="-22.8" font-family="Helvetica,sans-Serif" font-size="14.00">value = [525, 357]</text>
<text text-anchor="middle" x="1095" y="-7.8" font-family="Helvetica,sans-Serif" font-size="14.00">class = not_churn</text>
</g>
<!-- 12&#45;&gt;14 -->
<g id="edge14" class="edge">
<title>12&#45;&gt;14</title>
<path fill="none" stroke="black" d="M1002.11,-103.73C1015.05,-94.15 1028.82,-83.96 1041.69,-74.44"/>
<polygon fill="black" stroke="black" points="1044.04,-77.06 1049.99,-68.3 1039.87,-71.43 1044.04,-77.06"/>
</g>
</g>
</svg>
